<svg xmlns="http://www.w3.org/2000/svg" version="1.1" xmlns:xlink="http://www.w3.org/1999/xlink" xmlns:svgjs="http://svgjs.dev/svgjs" viewBox="0 0 800 800" opacity="0.65"><defs><linearGradient gradientTransform="rotate(270)" x1="50%" y1="0%" x2="50%" y2="100%" id="sssquiggly-grad"><stop stop-color="hsla(60, 0%, 44%, 1)" stop-opacity="1" offset="0%"></stop><stop stop-color="hsla(205, 0%, 24%, 1)" stop-opacity="1" offset="100%"></stop></linearGradient></defs><g stroke-width="1" stroke="url(#sssquiggly-grad)" fill="none" stroke-linecap="round" transform="matrix(1,0,0,1,-5,-225.90264511108398)"><path d="M10,10C41.25,12.708333333333332,95.41666666666667,27.375,160,23C224.58333333333331,18.625,253.33333333333331,-10.166666666666666,320,-11C386.6666666666667,-11.833333333333334,413.3333333333333,19.833333333333332,480,19C546.6666666666666,18.166666666666668,573.3333333333334,-15.416666666666666,640,-15C706.6666666666666,-14.583333333333334,766.6666666666666,13.5,800,21"></path><path d="M10,10C41.25,12.708333333333332,95.41666666666667,27.375,160,23C224.58333333333331,18.625,253.33333333333331,-10.166666666666666,320,-11C386.6666666666667,-11.833333333333334,413.3333333333333,19.833333333333332,480,19C546.6666666666666,18.166666666666668,573.3333333333334,-15.416666666666666,640,-15C706.6666666666666,-14.583333333333334,766.6666666666666,13.5,800,21" transform="matrix(1,0,0,1,0,1243)"></path><path d="M10,10C41.25,12.708333333333332,95.41666666666667,27.375,160,23C224.58333333333331,18.625,253.33333333333331,-10.166666666666666,320,-11C386.6666666666667,-11.833333333333334,413.3333333333333,19.833333333333332,480,19C546.6666666666666,18.166666666666668,573.3333333333334,-15.416666666666666,640,-15C706.6666666666666,-14.583333333333334,766.6666666666666,13.5,800,21" transform="matrix(1,0,0,1,0,1130)"></path><path d="M10,10C41.25,12.708333333333332,95.41666666666667,27.375,160,23C224.58333333333331,18.625,253.33333333333331,-10.166666666666666,320,-11C386.6666666666667,-11.833333333333334,413.3333333333333,19.833333333333332,480,19C546.6666666666666,18.166666666666668,573.3333333333334,-15.416666666666666,640,-15C706.6666666666666,-14.583333333333334,766.6666666666666,13.5,800,21" transform="matrix(1,0,0,1,0,1017)"></path><path d="M10,10C41.25,12.708333333333332,95.41666666666667,27.375,160,23C224.58333333333331,18.625,253.33333333333331,-10.166666666666666,320,-11C386.6666666666667,-11.833333333333334,413.3333333333333,19.833333333333332,480,19C546.6666666666666,18.166666666666668,573.3333333333334,-15.416666666666666,640,-15C706.6666666666666,-14.583333333333334,766.6666666666666,13.5,800,21" transform="matrix(1,0,0,1,0,904)"></path><path d="M10,10C41.25,12.708333333333332,95.41666666666667,27.375,160,23C224.58333333333331,18.625,253.33333333333331,-10.166666666666666,320,-11C386.6666666666667,-11.833333333333334,413.3333333333333,19.833333333333332,480,19C546.6666666666666,18.166666666666668,573.3333333333334,-15.416666666666666,640,-15C706.6666666666666,-14.583333333333334,766.6666666666666,13.5,800,21" transform="matrix(1,0,0,1,0,791)"></path><path d="M10,10C41.25,12.708333333333332,95.41666666666667,27.375,160,23C224.58333333333331,18.625,253.33333333333331,-10.166666666666666,320,-11C386.6666666666667,-11.833333333333334,413.3333333333333,19.833333333333332,480,19C546.6666666666666,18.166666666666668,573.3333333333334,-15.416666666666666,640,-15C706.6666666666666,-14.583333333333334,766.6666666666666,13.5,800,21" transform="matrix(1,0,0,1,0,678)"></path><path d="M10,10C41.25,12.708333333333332,95.41666666666667,27.375,160,23C224.58333333333331,18.625,253.33333333333331,-10.166666666666666,320,-11C386.6666666666667,-11.833333333333334,413.3333333333333,19.833333333333332,480,19C546.6666666666666,18.166666666666668,573.3333333333334,-15.416666666666666,640,-15C706.6666666666666,-14.583333333333334,766.6666666666666,13.5,800,21" transform="matrix(1,0,0,1,0,565)"></path><path d="M10,10C41.25,12.708333333333332,95.41666666666667,27.375,160,23C224.58333333333331,18.625,253.33333333333331,-10.166666666666666,320,-11C386.6666666666667,-11.833333333333334,413.3333333333333,19.833333333333332,480,19C546.6666666666666,18.166666666666668,573.3333333333334,-15.416666666666666,640,-15C706.6666666666666,-14.583333333333334,766.6666666666666,13.5,800,21" transform="matrix(1,0,0,1,0,452)"></path><path d="M10,10C41.25,12.708333333333332,95.41666666666667,27.375,160,23C224.58333333333331,18.625,253.33333333333331,-10.166666666666666,320,-11C386.6666666666667,-11.833333333333334,413.3333333333333,19.833333333333332,480,19C546.6666666666666,18.166666666666668,573.3333333333334,-15.416666666666666,640,-15C706.6666666666666,-14.583333333333334,766.6666666666666,13.5,800,21" transform="matrix(1,0,0,1,0,339)"></path><path d="M10,10C41.25,12.708333333333332,95.41666666666667,27.375,160,23C224.58333333333331,18.625,253.33333333333331,-10.166666666666666,320,-11C386.6666666666667,-11.833333333333334,413.3333333333333,19.833333333333332,480,19C546.6666666666666,18.166666666666668,573.3333333333334,-15.416666666666666,640,-15C706.6666666666666,-14.583333333333334,766.6666666666666,13.5,800,21" transform="matrix(1,0,0,1,0,226)"></path><path d="M10,10C41.25,12.708333333333332,95.41666666666667,27.375,160,23C224.58333333333331,18.625,253.33333333333331,-10.166666666666666,320,-11C386.6666666666667,-11.833333333333334,413.3333333333333,19.833333333333332,480,19C546.6666666666666,18.166666666666668,573.3333333333334,-15.416666666666666,640,-15C706.6666666666666,-14.583333333333334,766.6666666666666,13.5,800,21" transform="matrix(1,0,0,1,0,113)"></path></g></svg>